<?xml version="1.0" encoding="UTF-8" standalone="no"?>
<!-- Created with Inkscape (http://www.inkscape.org/) -->

<svg
   width="36"
   height="36"
   viewBox="0 0 36 36"
   version="1.1"
   id="svg18171"
   xml:space="preserve"
   inkscape:version="1.2.2 (b0a8486541, 2022-12-01)"
   sodipodi:docname="docker.svg"
   xmlns:inkscape="http://www.inkscape.org/namespaces/inkscape"
   xmlns:sodipodi="http://sodipodi.sourceforge.net/DTD/sodipodi-0.dtd"
   xmlns="http://www.w3.org/2000/svg"
   xmlns:svg="http://www.w3.org/2000/svg"><sodipodi:namedview
     id="namedview18173"
     pagecolor="#505050"
     bordercolor="#ffffff"
     borderopacity="1"
     inkscape:showpageshadow="0"
     inkscape:pageopacity="0"
     inkscape:pagecheckerboard="1"
     inkscape:deskcolor="#505050"
     inkscape:document-units="px"
     showgrid="false"
     inkscape:zoom="5.3115544"
     inkscape:cx="18.073805"
     inkscape:cy="9.8841123"
     inkscape:window-width="1366"
     inkscape:window-height="701"
     inkscape:window-x="0"
     inkscape:window-y="0"
     inkscape:window-maximized="1"
     inkscape:current-layer="layer1" /><defs
     id="defs18168" /><g
     inkscape:label="Camada 1"
     inkscape:groupmode="layer"
     id="layer1"><rect
       style="fill:#003380;stroke-width:2.44713;stroke-miterlimit:0;fill-opacity:1"
       id="rect18292"
       width="36"
       height="36"
       x="-4.4408921e-15"
       y="3.5527137e-15"
       rx="8" /><path
       id="rect8131"
       style="fill:#0044aa;fill-opacity:1;stroke-width:2.44713;stroke-miterlimit:0"
       d="m 18,0 v 36 h 10 c 4.431996,0 8,-3.568005 8,-8 V 8 C 36,3.568004 32.431996,0 28,0 Z" /><g
       id="g5790"
       transform="translate(33.991137,20.645545)"><path
         id="path436"
         style="fill:#0092b7;fill-opacity:1;stroke:#1a1a1a;stroke-width:0.5;stroke-linecap:round;stroke-linejoin:round;stroke-miterlimit:0;stroke-dasharray:none"
         d="m -7.784374,-8.3249068 c -2.521555,3.4751654 0.3808594,6.7968748 0.3808594,6.7968748 H -17.497265 -29.641796 a 12.145951,10.436017 0 0 0 6.072266,9.03711 12.145951,10.436017 0 0 0 12.146484,0 12.145951,10.436017 0 0 0 6.0175783,-8.322266 c 2.4983725,0.261193 4.85144536,-1.581478 5.3925781,-2.410156 -3.7064503,-1.5825716 -4.0861036,-0.388727 -5.3339844,-0.208985 0.3500737,-1.6599999 -1.9743214,-4.599399 -2.4375,-4.8925778 z" /></g><path
       id="path4059"
       style="fill:#0082a8;fill-opacity:1;stroke-width:1.17406;stroke-linecap:round;stroke-linejoin:round;stroke-miterlimit:0"
       d="m 28.334076,19.522277 c 0,3.72843 -2.509632,6.90508 -6.267603,8.769295 -3.757971,1.864215 -8.064357,1.17027 -11.822327,-0.693945 -3.75797,-1.864215 -5.40185,-5.537537 -5.611514,-8.178547 5.971542,1.878074 6.248007,9.694376 17.202001,5.146892 z"
       sodipodi:nodetypes="cssccc" /><path
       style="fill:#ffffff;fill-opacity:1;stroke:none;stroke-width:0.2;stroke-linecap:round;stroke-linejoin:round;stroke-miterlimit:0;stroke-dasharray:none;stroke-opacity:1"
       d="m 8.159294,26.476591 c 0,0 4.86388,0.198497 6.413151,-0.786176 0.498865,0.553834 3.622388,2.625618 7.494028,2.601157 -2.013956,0.803621 -7.531964,2.787499 -13.907179,-1.814981 z"
       id="path4057"
       sodipodi:nodetypes="cccc" /><path
       style="fill:none;fill-opacity:1;stroke:#2a4347;stroke-width:0.375;stroke-linecap:round;stroke-linejoin:round;stroke-miterlimit:0;stroke-dasharray:none;stroke-opacity:1"
       d="m 8.159294,26.476591 c 0.159534,-0.13772 4.092415,0.454659 6.413151,-0.786176"
       id="path555" /><g
       id="g3992"
       transform="translate(66.269705,1.776885)"><path
         id="path3608"
         style="fill:#ffffff;stroke-width:0.537692;stroke-linecap:round;stroke-linejoin:round;stroke-miterlimit:0"
         d="m -48.947872,22.72603 a 1,1 0 0 1 -1,1 1,1 0 0 1 -1,-1 1,1 0 0 1 1,-1 1,1 0 0 1 1,1 z" /><path
         id="circle3610"
         style="fill:#2a4347;stroke-width:0.317128;stroke-linecap:round;stroke-linejoin:round;stroke-miterlimit:0"
         d="m -49.358078,22.72603 a 0.58979452,0.58979452 0 0 1 -0.589794,0.589795 0.58979452,0.58979452 0 0 1 -0.589795,-0.589795 0.58979452,0.58979452 0 0 1 0.589795,-0.589794 0.58979452,0.58979452 0 0 1 0.589794,0.589794 z" /><path
         id="circle3888"
         style="fill:#ffffff;stroke-width:0.142077;stroke-linecap:round;stroke-linejoin:round;stroke-miterlimit:0"
         d="m -49.510356,22.55789 a 0.26423392,0.26423392 0 0 1 -0.264234,0.264234 0.26423392,0.26423392 0 0 1 -0.264233,-0.264234 0.26423392,0.26423392 0 0 1 0.264233,-0.264234 0.26423392,0.26423392 0 0 1 0.264234,0.264234 z" /></g><g
       id="g5754"
       transform="translate(38.573404,2.6882887)"
       style="stroke:#1a1a1a"><rect
         style="fill:#0082a8;fill-opacity:1;stroke:#1a1a1a;stroke-width:0.335345;stroke-linecap:round;stroke-linejoin:round;stroke-miterlimit:0;stroke-dasharray:none;stroke-opacity:1"
         id="rect5074"
         width="6.6321898"
         height="5.6527162"
         x="-30.523628"
         y="10.423071"
         ry="0.85255539" /><g
         id="g5745"
         transform="translate(-0.25078112,-0.01104879)"
         style="stroke:#1a1a1a"><rect
           style="fill:#2a4347;fill-opacity:1;stroke:#1a1a1a;stroke-width:0.175096;stroke-linecap:round;stroke-linejoin:round;stroke-miterlimit:0;stroke-dasharray:none;stroke-opacity:1"
           id="rect5609"
           width="0.22490418"
           height="3.6249042"
           x="-29.312654"
           y="11.448026"
           ry="0.25739288" /><rect
           style="fill:#2a4347;fill-opacity:1;stroke:#1a1a1a;stroke-width:0.175096;stroke-linecap:round;stroke-linejoin:round;stroke-miterlimit:0;stroke-dasharray:none;stroke-opacity:1"
           id="rect5732"
           width="0.22490418"
           height="3.6249042"
           x="-28.190929"
           y="11.448026"
           ry="0.25739288" /><rect
           style="fill:#2a4347;fill-opacity:1;stroke:#1a1a1a;stroke-width:0.175096;stroke-linecap:round;stroke-linejoin:round;stroke-miterlimit:0;stroke-dasharray:none;stroke-opacity:1"
           id="rect5734"
           width="0.22490418"
           height="3.6249042"
           x="-27.069204"
           y="11.448026"
           ry="0.25739288" /><rect
           style="fill:#2a4347;fill-opacity:1;stroke:#1a1a1a;stroke-width:0.175096;stroke-linecap:round;stroke-linejoin:round;stroke-miterlimit:0;stroke-dasharray:none;stroke-opacity:1"
           id="rect5736"
           width="0.22490418"
           height="3.6249042"
           x="-25.947479"
           y="11.448026"
           ry="0.25739288" /><rect
           style="fill:#2a4347;fill-opacity:1;stroke:#1a1a1a;stroke-width:0.175096;stroke-linecap:round;stroke-linejoin:round;stroke-miterlimit:0;stroke-dasharray:none;stroke-opacity:1"
           id="rect5738"
           width="0.22490418"
           height="3.6249042"
           x="-24.825754"
           y="11.448026"
           ry="0.25739288" /></g></g><g
       id="g5770"
       transform="translate(45.222347,2.6882887)"
       style="stroke:#1a1a1a"><rect
         style="fill:#0082a8;fill-opacity:1;stroke:#1a1a1a;stroke-width:0.335345;stroke-linecap:round;stroke-linejoin:round;stroke-miterlimit:0;stroke-dasharray:none;stroke-opacity:1"
         id="rect5756"
         width="6.6321898"
         height="5.6527162"
         x="-30.523628"
         y="10.423071"
         ry="0.85255539" /><g
         id="g5768"
         transform="translate(-0.25078112,-0.01104879)"
         style="stroke:#1a1a1a"><rect
           style="fill:#2a4347;fill-opacity:1;stroke:#1a1a1a;stroke-width:0.175096;stroke-linecap:round;stroke-linejoin:round;stroke-miterlimit:0;stroke-dasharray:none;stroke-opacity:1"
           id="rect5758"
           width="0.22490418"
           height="3.6249042"
           x="-29.312654"
           y="11.448026"
           ry="0.25739288" /><rect
           style="fill:#2a4347;fill-opacity:1;stroke:#1a1a1a;stroke-width:0.175096;stroke-linecap:round;stroke-linejoin:round;stroke-miterlimit:0;stroke-dasharray:none;stroke-opacity:1"
           id="rect5760"
           width="0.22490418"
           height="3.6249042"
           x="-28.190929"
           y="11.448026"
           ry="0.25739288" /><rect
           style="fill:#2a4347;fill-opacity:1;stroke:#1a1a1a;stroke-width:0.175096;stroke-linecap:round;stroke-linejoin:round;stroke-miterlimit:0;stroke-dasharray:none;stroke-opacity:1"
           id="rect5762"
           width="0.22490418"
           height="3.6249042"
           x="-27.069204"
           y="11.448026"
           ry="0.25739288" /><rect
           style="fill:#2a4347;fill-opacity:1;stroke:#1a1a1a;stroke-width:0.175096;stroke-linecap:round;stroke-linejoin:round;stroke-miterlimit:0;stroke-dasharray:none;stroke-opacity:1"
           id="rect5764"
           width="0.22490418"
           height="3.6249042"
           x="-25.947479"
           y="11.448026"
           ry="0.25739288" /><rect
           style="fill:#2a4347;fill-opacity:1;stroke:#1a1a1a;stroke-width:0.175096;stroke-linecap:round;stroke-linejoin:round;stroke-miterlimit:0;stroke-dasharray:none;stroke-opacity:1"
           id="rect5766"
           width="0.22490418"
           height="3.6249042"
           x="-24.825754"
           y="11.448026"
           ry="0.25739288" /></g></g><g
       id="g5786"
       transform="translate(41.738579,-3.0393127)"
       style="stroke:#1a1a1a"><rect
         style="fill:#0082a8;fill-opacity:1;stroke:#1a1a1a;stroke-width:0.335345;stroke-linecap:round;stroke-linejoin:round;stroke-miterlimit:0;stroke-dasharray:none;stroke-opacity:1"
         id="rect5772"
         width="6.6321898"
         height="5.6527162"
         x="-30.523628"
         y="10.423071"
         ry="0.85255539" /><g
         id="g5784"
         transform="translate(-0.25078112,-0.01104879)"
         style="stroke:#1a1a1a"><rect
           style="fill:#2a4347;fill-opacity:1;stroke:#1a1a1a;stroke-width:0.175096;stroke-linecap:round;stroke-linejoin:round;stroke-miterlimit:0;stroke-dasharray:none;stroke-opacity:1"
           id="rect5774"
           width="0.22490418"
           height="3.6249042"
           x="-29.312654"
           y="11.448026"
           ry="0.25739288" /><rect
           style="fill:#2a4347;fill-opacity:1;stroke:#1a1a1a;stroke-width:0.175096;stroke-linecap:round;stroke-linejoin:round;stroke-miterlimit:0;stroke-dasharray:none;stroke-opacity:1"
           id="rect5776"
           width="0.22490418"
           height="3.6249042"
           x="-28.190929"
           y="11.448026"
           ry="0.25739288" /><rect
           style="fill:#2a4347;fill-opacity:1;stroke:#1a1a1a;stroke-width:0.175096;stroke-linecap:round;stroke-linejoin:round;stroke-miterlimit:0;stroke-dasharray:none;stroke-opacity:1"
           id="rect5778"
           width="0.22490418"
           height="3.6249042"
           x="-27.069204"
           y="11.448026"
           ry="0.25739288" /><rect
           style="fill:#2a4347;fill-opacity:1;stroke:#1a1a1a;stroke-width:0.175096;stroke-linecap:round;stroke-linejoin:round;stroke-miterlimit:0;stroke-dasharray:none;stroke-opacity:1"
           id="rect5780"
           width="0.22490418"
           height="3.6249042"
           x="-25.947479"
           y="11.448026"
           ry="0.25739288" /><rect
           style="fill:#2a4347;fill-opacity:1;stroke:#1a1a1a;stroke-width:0.175096;stroke-linecap:round;stroke-linejoin:round;stroke-miterlimit:0;stroke-dasharray:none;stroke-opacity:1"
           id="rect5782"
           width="0.22490418"
           height="3.6249042"
           x="-24.825754"
           y="11.448026"
           ry="0.25739288" /></g></g></g></svg>
