<?xml version="1.0" encoding="UTF-8" standalone="no"?>
<!-- Created with Inkscape (http://www.inkscape.org/) -->

<svg
   width="36"
   height="36"
   viewBox="0 0 36 36"
   version="1.1"
   id="svg18171"
   xml:space="preserve"
   inkscape:version="1.2.2 (b0a8486541, 2022-12-01)"
   sodipodi:docname="java.svg"
   xmlns:inkscape="http://www.inkscape.org/namespaces/inkscape"
   xmlns:sodipodi="http://sodipodi.sourceforge.net/DTD/sodipodi-0.dtd"
   xmlns="http://www.w3.org/2000/svg"
   xmlns:svg="http://www.w3.org/2000/svg"><sodipodi:namedview
     id="namedview18173"
     pagecolor="#505050"
     bordercolor="#ffffff"
     borderopacity="1"
     inkscape:showpageshadow="0"
     inkscape:pageopacity="0"
     inkscape:pagecheckerboard="1"
     inkscape:deskcolor="#505050"
     inkscape:document-units="px"
     showgrid="false"
     inkscape:zoom="2.6557772"
     inkscape:cx="-0.75307522"
     inkscape:cy="14.12016"
     inkscape:window-width="1366"
     inkscape:window-height="701"
     inkscape:window-x="0"
     inkscape:window-y="0"
     inkscape:window-maximized="1"
     inkscape:current-layer="layer1" /><defs
     id="defs18168" /><g
     inkscape:label="Camada 1"
     inkscape:groupmode="layer"
     id="layer1"><rect
       style="fill:#ff0000;stroke-width:2.44713;stroke-miterlimit:0;fill-opacity:1"
       id="rect18292"
       width="36"
       height="36"
       x="-4.4408921e-15"
       y="3.5527137e-15"
       rx="8" /><path
       id="path26218"
       style="fill:#800000;fill-opacity:1;stroke-width:2.1;stroke-miterlimit:0"
       d="M 8 0 C 3.5680044 0 4.9515897e-17 3.5680044 0 8 L 0 28 C 0 32.431996 3.5680044 36 8 36 L 18 36 L 18 0 L 8 0 z " /><path
       style="fill:#ffffff;stroke:none;stroke-width:0.0709037"
       d="m 19.630785,2.5429848 c 0.388127,3.0710178 -1.774791,4.667203 -3.970609,6.4239002 -1.690678,1.352609 -3.088603,2.914902 -1.777847,5.062506 0.277666,0.454918 0.633957,0.890693 1.000672,1.276267 0.55234,0.580773 1.113401,1.239255 1.769828,1.701689 -0.521001,-1.770466 -2.58267,-2.933216 -1.860444,-5.034165 0.4189,-1.218764 1.549673,-2.062874 2.498577,-2.853656 1.077524,-0.8980308 2.19674,-2.032334 2.66988,-3.385873 0.326796,-0.9348589 0.522915,-2.4575166 -0.330057,-3.1906682 M 18,18 c 0.36877,-0.175417 0.696204,-0.433647 0.991589,-0.715419 0.239015,-0.227884 0.451444,-0.486187 0.615231,-0.773559 1.081423,-1.89703 -1.394464,-2.863874 -1.168281,-4.679647 0.07835,-0.628917 0.605305,-1.172322 1.053204,-1.579878 0.944864,-0.859722 2.021041,-1.531705 3.117,-2.17802 -0.623031,-0.1308107 -1.631708,0.49205 -2.198016,0.739128 -1.707999,0.745171 -3.968269,2.339086 -3.420396,4.507747 0.286876,1.135454 1.675029,2.106976 1.638371,3.261573 C 18.611612,17.119517 18.280637,17.569898 18,18 m 5.246876,-0.496327 c 0.385504,-0.04978 0.745695,-0.17116 1.13446,-0.078 0.261281,0.06268 0.495829,0.170665 0.706202,0.339204 1.54719,1.239326 -0.154499,2.994052 -1.273432,3.755912 -0.374796,0.255183 -0.980669,0.479309 -1.205363,0.875236 1.689423,-0.540358 4.996303,-1.719982 4.105752,-4.112417 -0.386993,-1.039589 -2.739366,-1.946874 -3.467619,-0.779941 m -0.850845,0.921748 v -0.0709 c -0.893033,0.01844 -1.804004,0.247454 -2.694341,0.342749 -1.750543,0.187398 -3.4857,0.295385 -5.246877,0.295385 -1.210972,0 -2.406502,0.03921 -3.545187,-0.425422 0.45974,-0.808374 1.756527,-0.90069 2.552534,-1.205364 -0.899243,-0.376499 -2.713238,0.346862 -3.545186,0.725416 -0.275178,0.125216 -1.0617912,0.376569 -0.8447199,0.819293 0.1355199,0.276383 0.5784969,0.347641 0.8447199,0.414006 0.825894,0.205763 1.704249,0.290139 2.552534,0.311268 3.131179,0.07792 7.118027,0.432797 9.926523,-1.206428 m -0.850845,3.332475 c -0.311976,-0.210868 -0.760725,-0.556524 -1.134459,-0.615657 -0.904944,-0.143155 -2.128247,0.303325 -3.048861,0.390893 -1.001799,0.09536 -1.976513,0.03552 -2.977957,0.01097 -0.700139,-0.01716 -2.438542,-0.01234 -1.914401,-1.062493 -0.558629,0.08374 -1.858081,0.703082 -1.050155,1.347951 0.625109,0.49895 1.636259,0.563757 2.397326,0.667419 1.799962,0.244972 3.673239,0.108274 5.459588,-0.189385 0.73116,-0.121813 1.6037,-0.215902 2.268919,-0.549717 m -0.496326,2.83615 c -0.504267,-0.145282 -0.965708,-0.563543 -1.488978,-0.620266 -0.532274,-0.05764 -1.169132,0.179316 -1.701689,0.24554 -0.987194,0.122876 -1.988992,0.127981 -2.977957,0.03226 -0.50356,-0.04877 -2.060874,0.02807 -1.772595,-0.791994 -0.631192,0.06331 -1.57931,0.667062 -0.843129,1.298673 0.489476,0.420033 1.222308,0.550709 1.835781,0.67245 1.608169,0.319209 3.216337,0.219802 4.821455,-0.06267 0.57113,-0.100537 1.793297,-0.268867 2.127112,-0.773985 m 4.18332,1.063556 c 0.07665,0.585737 -0.350051,0.822555 -0.850844,0.99237 -0.901399,0.305664 -1.893838,0.430101 -2.83615,0.547305 -3.215697,0.400109 -6.70636,0.549221 -9.926522,0.121175 C 10.877337,27.219951 10.14627,27.136072 9.420647,26.942009 9.191706,26.880741 8.7590304,26.7907 8.6449738,26.551896 8.5151365,26.280123 8.9575473,26.085775 9.1370325,25.995089 9.715238,25.702966 10.403239,25.52918 11.051433,25.51578 c -0.789556,-0.598144 -2.722292,0.17506 -3.4742828,0.589423 -0.3635563,0.200374 -0.9960783,0.82376 -0.473786,1.228335 0.3159994,0.244761 0.8025175,0.277376 1.1828234,0.338425 0.8973074,0.144217 1.7911424,0.250077 2.6943434,0.337501 3.723437,0.360333 7.436736,0.330057 11.131885,-0.313394 0.989674,-0.172296 2.100737,-0.421736 2.977674,-0.927988 0.494695,-0.28553 0.778239,-0.803907 0.14209,-1.110495 m 1.48898,1.418075 c -1.1234,1.010805 -2.824309,1.231386 -4.254225,1.51734 -2.489571,0.497815 -5.193982,0.647067 -7.728507,0.536103 -1.393393,-0.06105 -2.791446,-0.323038 -4.183321,-0.351753 v 0.0709 c 1.464736,0.545959 3.069508,0.57354 4.608743,0.640899 2.646837,0.115928 5.322672,0.07126 7.941218,-0.400819 0.976487,-0.176053 2.157956,-0.417835 2.977959,-1.00506 0.304176,-0.217816 0.779515,-0.594102 0.638133,-1.007612 z"
       id="path26101" /></g></svg>
