<?xml version="1.0" encoding="UTF-8" standalone="no"?>
<!-- Created with Inkscape (http://www.inkscape.org/) -->

<svg
   width="36"
   height="36"
   viewBox="0 0 36 36"
   version="1.1"
   id="svg18171"
   xml:space="preserve"
   inkscape:version="1.2.2 (b0a8486541, 2022-12-01)"
   sodipodi:docname="jest.svg"
   xmlns:inkscape="http://www.inkscape.org/namespaces/inkscape"
   xmlns:sodipodi="http://sodipodi.sourceforge.net/DTD/sodipodi-0.dtd"
   xmlns="http://www.w3.org/2000/svg"
   xmlns:svg="http://www.w3.org/2000/svg"><sodipodi:namedview
     id="namedview18173"
     pagecolor="#505050"
     bordercolor="#ffffff"
     borderopacity="1"
     inkscape:showpageshadow="0"
     inkscape:pageopacity="0"
     inkscape:pagecheckerboard="1"
     inkscape:deskcolor="#505050"
     inkscape:document-units="px"
     showgrid="false"
     inkscape:zoom="3.7558361"
     inkscape:cx="2.662523"
     inkscape:cy="27.024608"
     inkscape:window-width="1366"
     inkscape:window-height="701"
     inkscape:window-x="0"
     inkscape:window-y="0"
     inkscape:window-maximized="1"
     inkscape:current-layer="layer1" /><defs
     id="defs18168" /><g
     inkscape:label="Camada 1"
     inkscape:groupmode="layer"
     id="layer1"><rect
       style="fill:#202020;stroke-width:2.44713;stroke-miterlimit:0;fill-opacity:1"
       id="rect18292"
       width="36"
       height="36"
       x="-4.4408921e-15"
       y="3.5527137e-15"
       rx="8" /><path
       id="rect26807"
       style="fill:#0d0d0d;fill-opacity:1;stroke-width:2.44713;stroke-miterlimit:0"
       d="M 8,0 C 3.568005,0 0,3.5680044 0,8 v 20 c 0,4.431996 3.568005,8 8,8 H 18 V 0 Z" /><path
       style="fill:#ff00ff;stroke:none;stroke-width:0.239705"
       d="m 14.507979,6.5000001 2.636748,8.6293579 c -3.130882,1.074076 -2.263519,3.97797 -0.460081,5.185382 0,0 -2.309874,2.223652 -3.536103,2.382564 -0.657917,0.08509 -1.130206,-0.728293 -1.038351,-1.315113 0.174672,-1.115634 1.639002,-1.699265 1.910419,-2.896972 0.577016,-2.546187 -2.34625,-4.552035 -4.5212798,-3.113928 -1.9401434,1.282802 -0.7554043,3.047337 -0.8398757,4.791858 -0.062158,1.283689 -0.8777257,2.526245 -1.0326224,3.835271 -0.3482909,2.94381 1.7572722,5.439132 4.7238059,5.500256 3.187876,0.06567 5.899675,-2.330645 8.869062,-3.164098 1.991728,-0.558991 4.217336,-0.430029 5.698972,-2.107001 1.746245,-1.976291 1.761587,-8.279702 -1.144588,-9.098219 L 28.410833,6.5000001 H 14.507979 M 26.732902,7.9382264 24.335858,14.889653 H 23.856449 L 21.69911,10.095565 h -0.479409 l -2.157339,4.794088 H 18.582953 L 16.18591,7.9382264 H 26.732902 M 21.69911,13.211722 c 0.285488,0.685747 0.788532,1.419266 0.90112,2.15734 0.261541,1.714845 -1.786182,2.406536 -2.161222,0.478305 -0.178747,-0.918858 0.441558,-1.819787 0.780693,-2.635645 h 0.479409 m -10.785762,3.025717 c 2.003784,-0.277386 2.444601,2.735171 0.47495,3.119849 -2.0869628,0.407592 -2.5307277,-2.835273 -0.47495,-3.119849 m 6.951427,0 c 2.003786,-0.277386 2.444601,2.735171 0.47495,3.119849 -2.086963,0.407592 -2.530728,-2.835273 -0.47495,-3.119849 m 6.953273,-0.0035 c 1.989641,-0.150079 2.228387,3.058988 0.235989,3.148541 -2.004433,0.09008 -2.211513,-2.999516 -0.235989,-3.148541 m 1.67515,4.168939 c -7.08e-4,1.231194 0.0429,2.386258 -0.984897,3.255425 -1.275515,1.07843 -3.23541,0.952347 -4.768009,1.404188 -2.970872,0.875881 -5.86209,3.47068 -9.108766,2.959631 -3.6767542,-0.578648 -2.7211721,-5.122483 -1.438226,-7.379539 0.810081,1.063567 0.663597,2.390811 1.921326,3.257342 1.070616,0.737331 2.239678,-0.111223 3.112465,-0.783834 1.463683,-1.12752 2.838556,-1.873384 4.310244,-2.881701 0.584617,-0.40057 1.045783,-1.382806 1.734885,-1.569009 0.859987,-0.232346 1.536242,1.109856 2.127209,1.532742 1.031976,0.738529 1.966607,0.558967 3.093769,0.204755 z"
       id="path28349"
       sodipodi:nodetypes="ccscccssccccccccccccccccccccccsccsccccccccccccccc" /></g></svg>
