<?xml version="1.0" encoding="UTF-8" standalone="no"?>
<!-- Created with Inkscape (http://www.inkscape.org/) -->

<svg
   width="36"
   height="36"
   viewBox="0 0 36 36"
   version="1.1"
   id="svg18171"
   xml:space="preserve"
   inkscape:version="1.3 (0e150ed6c4, 2023-07-21)"
   sodipodi:docname="mysql.svg"
   xmlns:inkscape="http://www.inkscape.org/namespaces/inkscape"
   xmlns:sodipodi="http://sodipodi.sourceforge.net/DTD/sodipodi-0.dtd"
   xmlns="http://www.w3.org/2000/svg"
   xmlns:svg="http://www.w3.org/2000/svg"><sodipodi:namedview
     id="namedview18173"
     pagecolor="#505050"
     bordercolor="#ffffff"
     borderopacity="1"
     inkscape:showpageshadow="0"
     inkscape:pageopacity="0"
     inkscape:pagecheckerboard="1"
     inkscape:deskcolor="#505050"
     inkscape:document-units="px"
     showgrid="false"
     inkscape:zoom="5.3115544"
     inkscape:cx="14.873236"
     inkscape:cy="18.262074"
     inkscape:window-width="1366"
     inkscape:window-height="697"
     inkscape:window-x="0"
     inkscape:window-y="0"
     inkscape:window-maximized="1"
     inkscape:current-layer="layer1"
     showguides="false"><sodipodi:guide
       position="15.470255,16.592939"
       orientation="1,0"
       id="guide635"
       inkscape:locked="false" /><sodipodi:guide
       position="14.302255,16.592939"
       orientation="0,-1"
       id="guide637"
       inkscape:locked="false" /></sodipodi:namedview><defs
     id="defs18168" /><g
     inkscape:label="Camada 1"
     inkscape:groupmode="layer"
     id="layer1"><rect
       style="fill:#00578e;stroke-width:2.44713;stroke-miterlimit:0;fill-opacity:1"
       id="rect18292"
       width="36"
       height="36"
       x="-4.4408921e-15"
       y="3.5527137e-15"
       rx="8" /><path
       style="fill:#ffffff;fill-opacity:1;stroke-width:0.640729"
       d="M 33.315332,29.143069 C 33.123338,28.91173 32.108968,28.271963 31.061177,27.721364 29.1672,26.726108 27.345121,25.046209 27.640761,24.567852 c 0.223359,-0.361402 2.042057,-0.821905 3.253123,-0.823706 0.571714,-8.33e-4 1.03948,-0.102578 1.03948,-0.22606 0,-0.379679 -3.436357,-2.524121 -4.776505,-2.980754 -0.696153,-0.237204 -1.455192,-0.642141 -1.686752,-0.89986 -0.23156,-0.25772 -1.13321,-2.027801 -2.003667,-3.933514 -0.870456,-1.905712 -1.932026,-3.973338 -2.359043,-4.594722 -1.938576,-2.82097 -6.387172,-5.9386711 -8.473788,-5.9386711 -0.526282,0 -1.667711,-0.412992 -2.6813935,-0.970182 -2.988921,-1.6429168 -3.733199,-1.0760628 -1.940805,1.478148 0.606337,0.864046 1.372228,2.3753291 1.701982,3.3584061 0.3297545,0.983076 0.9278165,2.261095 1.3290255,2.840041 l 0.729472,1.052628 -0.452657,1.613257 c -0.248961,0.887291 -0.452656,2.017603 -0.452656,2.511804 0,1.402354 0.559532,3.280329 1.131607,3.79805 0.59057,0.534459 0.65949,0.431074 0.91105,-1.366653 0.08226,-0.587839 0.35124,-1.376601 0.597737,-1.752804 l 0.448178,-0.684005 0.94536,1.972635 c 0.519948,1.084949 1.34035,2.559768 1.823116,3.277374 l 0.877756,1.304739 -1.173334,-1.108779 c -0.645333,-0.609827 -1.435796,-1.607728 -1.756583,-2.217556 l -0.58325,-1.108778 -0.211119,1.182335 c -0.271451,1.520226 -0.413718,1.728208 -1.182151,1.728208 -1.876487,0 -2.9372665,-3.930916 -2.072158,-7.678767 0.286834,-1.242634 0.258698,-1.422067 -0.367743,-2.345178 C 9.8819545,11.505712 9.3481985,10.324199 9.0689165,9.429904 8.7896355,8.535609 8.0195885,7.0097999 7.3577005,6.0392179 6.0173485,4.0737469 5.9710485,3.8923349 6.5857785,3.014685 c 0.576366,-0.8228777 1.848908,-0.7931427 3.4492145,0.080596 2.00462,1.0944889 2.287682,1.2012569 3.660433,1.3806759 3.169206,0.414217 8.733981,5.5273221 10.037974,9.2232331 0.203844,0.577754 0.871283,2.04479 1.483201,3.260081 1.044643,2.074704 1.210685,2.257539 2.719395,2.994445 1.761611,0.860432 4.699247,3.05106 4.942883,3.685963 0.175535,0.457437 0.05908,0.508863 -2.123592,0.937788 -0.876628,0.172269 -1.593869,0.419858 -1.593869,0.550197 0,0.13034 0.766923,0.776368 1.704274,1.435619 0.93735,0.659251 2.013606,1.604035 2.391679,2.09952 0.681292,0.892871 0.729091,1.288927 0.05796,0.480266 z M 12.473337,7.9410519 c -0.402117,-0.706924 -0.41111,-0.830125 -0.0606,-0.830125 0.465419,0 0.764,0.586968 0.625539,1.2297251 -0.06468,0.300242 -0.235635,0.179318 -0.564939,-0.3996001 z"
       id="path1" /><text
       xml:space="preserve"
       style="font-size:11px;line-height:1.4;font-family:Roboto;-inkscape-font-specification:Roboto;letter-spacing:1.50718px;fill:#ffffff;fill-opacity:1;stroke-width:1.22067;stroke-linecap:round;stroke-linejoin:round;stroke-miterlimit:0"
       x="7.3133178"
       y="28.99955"
       id="text1"><tspan
         sodipodi:role="line"
         id="tspan1"
         x="7.3133178"
         y="28.99955"
         style="font-style:normal;font-variant:normal;font-weight:normal;font-stretch:normal;font-size:11px;font-family:Orbitron;-inkscape-font-specification:Orbitron;fill:#ffffff;fill-opacity:1;stroke-width:1.22067">sql</tspan></text><path
       id="rect1"
       style="opacity:0.19;fill:#1a1a1a;stroke-width:2.44713;stroke-miterlimit:0"
       d="M 7.9999995,1.48e-4 18,0 V 15.993925 26.029549 36.138681 L 7.9999995,36.000151 C 3.5684247,35.938751 -5.5000001e-7,32.432151 -5.5000001e-7,28.000148 v -20 c 0,-4.432 3.57215785000001,-8.191931 8.00000005000001,-8 z"
       sodipodi:nodetypes="sccscssss" /></g></svg>
