<?xml version="1.0" encoding="UTF-8" standalone="no"?>
<!-- Created with Inkscape (http://www.inkscape.org/) -->

<svg
   width="36"
   height="36"
   viewBox="0 0 36 36"
   version="1.1"
   id="svg18171"
   xml:space="preserve"
   inkscape:version="1.2.2 (b0a8486541, 2022-12-01)"
   sodipodi:docname="nodejs.svg"
   xmlns:inkscape="http://www.inkscape.org/namespaces/inkscape"
   xmlns:sodipodi="http://sodipodi.sourceforge.net/DTD/sodipodi-0.dtd"
   xmlns="http://www.w3.org/2000/svg"
   xmlns:svg="http://www.w3.org/2000/svg"><sodipodi:namedview
     id="namedview18173"
     pagecolor="#505050"
     bordercolor="#ffffff"
     borderopacity="1"
     inkscape:showpageshadow="0"
     inkscape:pageopacity="0"
     inkscape:pagecheckerboard="1"
     inkscape:deskcolor="#505050"
     inkscape:document-units="px"
     showgrid="false"
     inkscape:zoom="2.6557772"
     inkscape:cx="27.110708"
     inkscape:cy="35.582804"
     inkscape:window-width="1366"
     inkscape:window-height="701"
     inkscape:window-x="0"
     inkscape:window-y="0"
     inkscape:window-maximized="1"
     inkscape:current-layer="layer1" /><defs
     id="defs18168" /><g
     inkscape:label="Camada 1"
     inkscape:groupmode="layer"
     id="layer1"><rect
       style="fill:#008158;stroke-width:2.44713;stroke-miterlimit:0;fill-opacity:1"
       id="rect18292"
       width="36"
       height="36"
       x="-4.4408921e-15"
       y="3.5527137e-15"
       rx="8" /><path
       id="rect8131"
       style="fill:#004f42;fill-opacity:1;stroke-width:2.44713;stroke-miterlimit:0"
       d="m 18,0 v 36 h 10 c 4.431996,0 8,-3.568005 8,-8 V 8 C 36,3.568004 32.431996,0 28,0 Z" /><g
       id="g8129"
       transform="translate(77.761719,0.08886757)"
       style="stroke:#ffffff"><path
         id="path8058"
         style="fill:none;stroke:#ffffff;stroke-width:0.912776;stroke-linecap:round;stroke-linejoin:round;stroke-miterlimit:0"
         d="m -18.49119,13.793763 -0.614343,0.935165 3.687838,6.385466 h 7.3732791 l 3.6866397,-6.385466 -3.6866397,-6.3854662 h -7.3732791 l -1.519437,2.6317742"
         transform="matrix(0,-1.6312068,1.6312068,0,-83.787646,-1.2256216)"
         sodipodi:nodetypes="cccccccc" /><path
         style="fill:none;fill-opacity:1;stroke:#ffffff;stroke-width:1.6;stroke-linecap:round;stroke-linejoin:round;stroke-miterlimit:0;stroke-dasharray:none;stroke-dashoffset:0;stroke-opacity:1"
         d="m -62.113758,13.199881 -0.01856,11.067583 c 0,0 -0.56189,4.032955 -3.690755,2.2031 l -4.354661,-2.546737"
         id="path8060"
         sodipodi:nodetypes="ccsc" /><path
         d="m -56.300562,22.715522 q -1.756937,0 -2.755618,-0.727425 -0.998681,-0.727425 -0.998681,-2.030023 h 1.978867 q 0,0.592089 0.462352,0.930427 0.462352,0.32142 1.31308,0.32142 h 0.81374 q 0.869221,0 1.350068,-0.32142 0.480846,-0.338338 0.480846,-0.947344 0,-1.065763 -1.239103,-1.218014 l -2.681643,-0.338338 q -1.128139,-0.135334 -1.738444,-0.812009 -0.610304,-0.693591 -0.610304,-1.793188 0,-1.268764 0.924704,-1.962355 0.943199,-0.710509 2.663147,-0.710509 h 0.832235 q 1.59049,0 2.570677,0.693592 0.99868,0.693591 1.054162,1.827021 h -1.997361 q -0.03699,-0.456755 -0.480845,-0.744342 -0.425364,-0.304504 -1.146633,-0.304504 h -0.832235 q -0.795244,0 -1.239103,0.321421 -0.425364,0.321421 -0.425364,0.845843 0,0.879676 1.054163,1.015012 l 2.515195,0.304503 q 2.718631,0.338338 2.718631,2.85895 0,1.336432 -0.980187,2.063857 -0.980187,0.727425 -2.792606,0.727425 z"
         id="path8122"
         style="font-weight:bold;font-size:17.6879px;font-family:'JetBrains Mono';-inkscape-font-specification:'JetBrains Mono Bold';stroke-width:1.17919;stroke-linecap:round;stroke-linejoin:round;stroke-miterlimit:0;stroke:none;fill:#ffffff" /></g></g></svg>
