<?xml version="1.0" encoding="UTF-8" standalone="no"?>
<!-- Created with Inkscape (http://www.inkscape.org/) -->

<svg
   width="36"
   height="36"
   viewBox="0 0 36 36"
   version="1.1"
   id="svg18171"
   xml:space="preserve"
   inkscape:version="1.2.2 (b0a8486541, 2022-12-01)"
   sodipodi:docname="redux.svg"
   xmlns:inkscape="http://www.inkscape.org/namespaces/inkscape"
   xmlns:sodipodi="http://sodipodi.sourceforge.net/DTD/sodipodi-0.dtd"
   xmlns="http://www.w3.org/2000/svg"
   xmlns:svg="http://www.w3.org/2000/svg"><sodipodi:namedview
     id="namedview18173"
     pagecolor="#505050"
     bordercolor="#ffffff"
     borderopacity="1"
     inkscape:showpageshadow="0"
     inkscape:pageopacity="0"
     inkscape:pagecheckerboard="1"
     inkscape:deskcolor="#505050"
     inkscape:document-units="px"
     showgrid="false"
     inkscape:zoom="2.6557772"
     inkscape:cx="17.697268"
     inkscape:cy="22.780525"
     inkscape:window-width="1366"
     inkscape:window-height="701"
     inkscape:window-x="0"
     inkscape:window-y="0"
     inkscape:window-maximized="1"
     inkscape:current-layer="layer1"
     showguides="false"><sodipodi:guide
       position="15.470255,16.592939"
       orientation="1,0"
       id="guide635"
       inkscape:locked="false" /><sodipodi:guide
       position="14.302255,16.592939"
       orientation="0,-1"
       id="guide637"
       inkscape:locked="false" /><sodipodi:guide
       position="132.46663,-29.570312"
       orientation="1,0"
       id="guide2101"
       inkscape:locked="false" /></sodipodi:namedview><defs
     id="defs18168" /><g
     inkscape:label="Camada 1"
     inkscape:groupmode="layer"
     id="layer1"><rect
       style="fill:#000000;stroke-width:2.44713;stroke-miterlimit:0;fill-opacity:1"
       id="rect18292"
       width="36"
       height="36"
       x="-4.4408921e-15"
       y="3.5527137e-15"
       rx="8" /><path
       id="rect2110"
       style="fill:#000000;stroke-width:2.44713;stroke-miterlimit:0;fill-opacity:1"
       d="M 8 0 C 3.5680044 0 4.9515897e-17 3.5680044 0 8 L 0 28 C 0 32.431996 3.5680044 36 8 36 L 18 36 L 18 0 L 8 0 z " /><path
       style="fill:#724cb9;fill-opacity:1;stroke-width:0.131827"
       d="M 11.250618,28.34474 C 9.3457045,27.856581 8.2931913,27.115296 7.6034121,25.776018 7.0220291,24.647203 6.8755703,23.695858 7.0637474,22.270555 7.2495211,20.863459 7.816504,19.755801 8.9755869,18.535588 c 0.5066986,-0.533421 0.9659536,-0.942243 1.0205666,-0.90849 0.05461,0.03375 0.1363695,0.293212 0.1816795,0.576577 0.07553,0.472304 0.03812,0.560819 -0.4491685,1.062937 -0.586363,0.604207 -1.2940359,1.668962 -1.5835162,2.382537 -0.110108,0.271417 -0.184694,0.895636 -0.1811442,1.51602 0.00694,1.214107 0.2826885,1.927401 1.1071734,2.864066 1.8355825,2.08533 5.7636295,1.777388 9.1350875,-0.716153 1.041604,-0.770375 2.201189,-2.027983 2.619061,-2.840461 0.284911,-0.553956 0.287375,-0.591527 0.07817,-1.192084 -0.269341,-0.773178 -0.175848,-1.253982 0.325936,-1.676205 0.536062,-0.451066 0.947332,-0.528624 1.475101,-0.278182 0.566161,0.268661 0.871999,0.736638 0.871999,1.334288 0,0.61287 -0.312376,1.072779 -0.949357,1.397745 -0.282479,0.144108 -0.551592,0.363151 -0.59803,0.48676 -0.200234,0.532982 -1.036027,1.687402 -1.834396,2.533714 -1.47684,1.56553 -3.554182,2.726926 -5.714345,3.194767 -0.868881,0.188179 -2.622646,0.226904 -3.229786,0.07132 z m 10.348493,0.02282 c -0.181263,-0.05972 -0.575321,-0.179454 -0.875683,-0.26606 -0.899949,-0.259494 -0.957702,-0.340274 -0.50851,-0.711279 0.427294,-0.352918 0.779802,-0.409029 1.308016,-0.208202 0.590758,0.224607 2.265215,0.375068 2.885148,0.259254 1.405947,-0.262662 2.553409,-1.116412 3.202607,-2.382858 0.308804,-0.602405 0.361805,-0.864883 0.358856,-1.777175 -0.003,-0.980012 -0.04906,-1.164598 -0.5436,-2.186311 -0.83576,-1.726681 -1.939309,-2.818523 -3.900143,-3.858764 -1.412217,-0.749197 -2.734279,-1.127992 -4.242519,-1.21556 -1.298164,-0.07537 -1.332733,-0.06992 -1.584439,0.250079 -0.356682,0.453447 -0.739242,0.632658 -1.350528,0.632658 -0.432868,0 -0.592391,-0.0798 -0.931462,-0.465985 -0.470328,-0.535676 -0.537443,-1.134784 -0.18449,-1.646887 0.363016,-0.526705 0.595437,-0.646885 1.259615,-0.651323 0.520385,-0.0035 0.69796,0.06325 1.041219,0.391291 0.389835,0.372548 0.475774,0.395553 1.481863,0.396686 1.096822,0.0012 3.209024,0.450027 4.156837,0.883227 2.681958,1.225797 5.00482,3.581174 5.590591,5.668855 0.401683,1.43158 0.313171,3.182737 -0.207237,4.100074 -0.662872,1.168459 -1.956183,2.178038 -3.395426,2.650517 -0.876136,0.287621 -2.871602,0.364823 -3.560715,0.137763 z m -7.776014,-4.442832 c -0.627772,-0.317249 -0.819118,-0.73438 -0.72258,-1.575217 0.0565,-0.492126 0.02333,-0.769301 -0.118323,-0.98871 -0.323393,-0.500894 -0.986786,-2.278924 -1.232261,-3.302702 -0.355069,-1.480864 -0.295668,-3.926852 0.130807,-5.386324 0.182191,-0.623488 0.432655,-1.335358 0.556586,-1.581936 0.722503,-1.4375067 1.842732,-2.5424859 3.224766,-3.1808638 0.746399,-0.3447726 1.008086,-0.3952579 2.109247,-0.4069259 1.159113,-0.012288 1.325394,0.019651 2.132696,0.4095026 1.66611,0.8045897 2.982884,2.6770181 3.477702,4.9452321 0.123443,0.565848 0.188491,1.064765 0.144553,1.108702 -0.04394,0.04394 -0.317561,0.0087 -0.608048,-0.07835 -0.4163,-0.124728 -0.528162,-0.222114 -0.528162,-0.459818 0,-0.446178 -0.534806,-1.8898 -1.013149,-2.734834 -0.417696,-0.7378947 -1.235434,-1.5525347 -1.916717,-1.9094532 -1.437773,-0.7532382 -4.23647,0.054896 -5.2949,1.5289202 -0.387348,0.539442 -0.959787,1.638019 -1.20211,2.306989 -0.217871,0.601465 -0.45992,2.166899 -0.460065,2.975429 -1.58e-4,0.877385 0.369679,2.892756 0.663628,3.616346 0.670117,1.649578 0.950433,2.042954 1.455782,2.042954 0.510814,0 1.148517,0.575611 1.252648,1.130683 0.223068,1.189052 -0.97208,2.086173 -2.0521,1.540378 z"
       id="path5028" /></g></svg>
