<?xml version="1.0" encoding="UTF-8" standalone="no"?>
<!-- Created with Inkscape (http://www.inkscape.org/) -->

<svg
   width="36"
   height="36"
   viewBox="0 0 36 36"
   version="1.1"
   id="svg18171"
   xml:space="preserve"
   inkscape:version="1.3 (0e150ed6c4, 2023-07-21)"
   sodipodi:docname="springboot.svg"
   xmlns:inkscape="http://www.inkscape.org/namespaces/inkscape"
   xmlns:sodipodi="http://sodipodi.sourceforge.net/DTD/sodipodi-0.dtd"
   xmlns="http://www.w3.org/2000/svg"
   xmlns:svg="http://www.w3.org/2000/svg"><sodipodi:namedview
     id="namedview18173"
     pagecolor="#505050"
     bordercolor="#ffffff"
     borderopacity="1"
     inkscape:showpageshadow="0"
     inkscape:pageopacity="0"
     inkscape:pagecheckerboard="1"
     inkscape:deskcolor="#505050"
     inkscape:document-units="px"
     showgrid="false"
     inkscape:zoom="5.3115544"
     inkscape:cx="38.783374"
     inkscape:cy="21.086106"
     inkscape:window-width="1366"
     inkscape:window-height="697"
     inkscape:window-x="0"
     inkscape:window-y="0"
     inkscape:window-maximized="1"
     inkscape:current-layer="layer1"
     showguides="true"><sodipodi:guide
       position="17.922807,5.568286"
       orientation="1,0"
       id="guide635"
       inkscape:locked="false" /><sodipodi:guide
       position="36,18"
       orientation="0,-1"
       id="guide637"
       inkscape:locked="false" /></sodipodi:namedview><defs
     id="defs18168" /><g
     inkscape:label="Camada 1"
     inkscape:groupmode="layer"
     id="layer1"><rect
       style="fill:#46c43d;stroke-width:2.44713;stroke-miterlimit:0;fill-opacity:1"
       id="rect18292"
       width="36"
       height="36"
       x="-4.4408921e-15"
       y="3.5527137e-15"
       rx="8" /><path
       style="fill:#000000;stroke-width:0.384354"
       d="m 11.594036,30.250253 c -0.688413,-0.212274 -1.463866,-0.935712 -1.9526544,-1.82167 -0.200872,-0.364095 -0.480057,-0.857858 -0.620411,-1.097253 -0.140354,-0.239398 -0.576374,-0.994895 -0.968934,-1.678887 -0.39256,-0.683988 -0.829286,-1.439489 -0.970502,-1.678884 -0.23156,-0.392555 -0.404944,-0.693666 -1.279406,-2.221925 -0.142203,-0.248519 -0.410319,-0.70369 -0.595815,-1.011484 -0.185495,-0.307794 -0.510172,-0.91375 -0.721503,-1.346567 -0.338245,-0.692736 -0.376851,-0.87882 -0.322519,-1.554522 0.04245,-0.527924 0.173718,-0.969166 0.420426,-1.413202 0.446614,-0.803841 1.444362,-2.547776 1.836292,-3.209601 0.391494,-0.66109 2.133142,-3.6951402 2.498578,-4.3526662 0.132088,-0.237666 0.229783,-0.400227 1.008964,-1.6788845 0.4430194,-0.727005 0.8892264,-1.082832 1.7272074,-1.377359 0.633764,-0.22275 1.073764,-0.239345 6.345658,-0.239345 7.550046,0 7.110595,-0.15442 8.971966,3.1526895 0.645971,1.147698 0.941981,1.6660672 1.288876,2.2570522 0.160594,0.273595 0.45278,0.77726 0.6493,1.119256 0.19652,0.341996 0.457096,0.789697 0.579059,0.994894 1.262306,2.123799 2.256398,3.997588 2.330689,4.393192 0.119584,0.636747 -0.04468,1.494282 -0.406903,2.12428 -0.180616,0.314136 -0.74507,1.298673 -1.254338,2.187859 -0.8918,1.557086 -2.060443,3.575304 -2.520391,4.352666 -0.121414,0.205195 -0.534451,0.92263 -0.917863,1.594299 -0.903012,1.581903 -0.956356,1.653989 -1.52455,2.060135 -0.864242,0.617764 -1.083516,0.636682 -7.272455,0.627388 -4.552291,-0.0068 -5.886536,-0.04509 -6.328771,-0.181461 z m 7.993672,-5.16271 c 1.43435,-0.265153 3.311791,-1.384392 4.212327,-2.511182 1.31545,-1.645948 1.736813,-2.749984 1.816186,-4.758716 0.05437,-1.376055 0.03294,-1.569866 -0.274843,-2.487237 -0.560384,-1.670166 -1.5314,-3.072227 -2.728088,-3.939102 -0.618075,-0.447733 -0.995495,-0.444578 -1.452211,0.01214 -0.608882,0.608881 -0.514323,0.990622 0.494194,1.995146 1.462358,1.456569 2.057133,3.173055 1.745257,5.036723 -0.372008,2.223001 -1.933413,3.921584 -4.103259,4.463748 -1.026597,0.25651 -1.686393,0.257355 -2.72007,0.0035 -1.048713,-0.257574 -1.913685,-0.75148 -2.63107,-1.502377 -0.812269,-0.850213 -1.184754,-1.578686 -1.43915,-2.814598 -0.212371,-1.031724 -0.212525,-1.125172 -0.0035,-2.14048 0.2647,-1.285955 0.713518,-2.065859 1.793763,-3.116987 0.957394,-0.93159 1.023633,-1.302065 0.340114,-1.902204 -0.668702,-0.587127 -0.923306,-0.514476 -2.088889,0.59606 -1.150224,1.095903 -1.977801,2.653236 -2.2148,4.167808 -0.5714214,3.651732 1.185943,6.914202 4.55674,8.459385 0.410393,0.188125 0.998001,0.38631 1.305799,0.440411 0.832794,0.146381 2.59446,0.145332 3.391536,-0.0019 z m -0.875169,-6.699906 0.406135,-0.362726 0.0364,-3.674985 c 0.04024,-4.065249 0.01314,-4.236491 -0.731552,-4.6215832 -0.502454,-0.25983 -1.017449,-0.137823 -1.415616,0.3353712 L 16.693639,10.4372 v 3.733749 3.733752 l 0.422831,0.422827 c 0.544833,0.544838 1.03277,0.563214 1.59609,0.06011 z"
       id="path1" /></g></svg>
