<?xml version="1.0" encoding="UTF-8" standalone="no"?>
<!-- Created with Inkscape (http://www.inkscape.org/) -->

<svg
   width="36"
   height="36"
   viewBox="0 0 36 36"
   version="1.1"
   id="svg1"
   xml:space="preserve"
   sodipodi:docname="tailwind.svg"
   inkscape:version="1.3 (0e150ed6c4, 2023-07-21)"
   xmlns:inkscape="http://www.inkscape.org/namespaces/inkscape"
   xmlns:sodipodi="http://sodipodi.sourceforge.net/DTD/sodipodi-0.dtd"
   xmlns="http://www.w3.org/2000/svg"
   xmlns:svg="http://www.w3.org/2000/svg"><sodipodi:namedview
     id="namedview1"
     pagecolor="#505050"
     bordercolor="#ffffff"
     borderopacity="1"
     inkscape:showpageshadow="0"
     inkscape:pageopacity="0"
     inkscape:pagecheckerboard="1"
     inkscape:deskcolor="#d1d1d1"
     inkscape:document-units="px"
     inkscape:zoom="5.0394254"
     inkscape:cx="25.201286"
     inkscape:cy="15.67639"
     inkscape:window-width="1366"
     inkscape:window-height="697"
     inkscape:window-x="0"
     inkscape:window-y="0"
     inkscape:window-maximized="1"
     inkscape:current-layer="layer1" /><defs
     id="defs1" /><g
     inkscape:label="Camada 1"
     inkscape:groupmode="layer"
     id="layer1"><rect
       style="fill:#f2f2f2;fill-opacity:1;stroke-width:2.44713;stroke-miterlimit:0"
       id="rect18292"
       width="36"
       height="36"
       x="-4.4408921e-15"
       y="3.5527137e-15"
       rx="8" /><path
       style="fill:#08b4f9;stroke:none;stroke-width:0.545627"
       d="m 3.9605452,23.875202 c 1.491521,-1.353173 2.776386,-2.535307 4.941124,-2.100758 2.3044078,0.462582 3.6268178,3.027773 5.5665778,4.186505 2.68136,1.601728 6.807045,1.638274 9.319266,-0.325674 1.376116,-1.075791 2.252535,-2.698978 2.626994,-4.387002 -1.531887,1.270963 -2.757121,2.585543 -4.941125,2.13647 -2.292541,-0.47139 -3.572621,-2.876477 -5.441487,-4.090132 -3.520502,-2.286228 -9.0209338,-1.540055 -11.1920448,2.203849 -0.399803,0.689422 -0.847446,1.566982 -0.879305,2.376742 z"
       id="path4"
       sodipodi:nodetypes="cssscscsc" /><path
       style="fill:#08b4f9;stroke:none;stroke-width:0.545627"
       d="m 8.8372107,14.73776 c 1.4915213,-1.353173 2.7763863,-2.535307 4.9411243,-2.100758 2.304407,0.462582 3.626817,3.027773 5.566577,4.186505 2.68136,1.601728 6.807045,1.638274 9.319266,-0.325674 1.376116,-1.075791 2.252535,-2.698978 2.626994,-4.387002 -1.531887,1.270963 -2.757121,2.585543 -4.941125,2.13647 C 24.057506,13.775911 22.777426,11.370824 20.90856,10.157169 17.388058,7.8709412 11.887627,8.6171142 9.7165157,12.361018 9.3167127,13.05044 8.8690697,13.928 8.8372107,14.73776 Z"
       id="path5"
       sodipodi:nodetypes="cssscscsc" /></g></svg>
