<?xml version="1.0" encoding="UTF-8" standalone="no"?>
<svg
   xmlns:dc="http://purl.org/dc/elements/1.1/"
   xmlns:cc="http://creativecommons.org/ns#"
   xmlns:rdf="http://www.w3.org/1999/02/22-rdf-syntax-ns#"
   xmlns:svg="http://www.w3.org/2000/svg"
   xmlns="http://www.w3.org/2000/svg"
   xmlns:sodipodi="http://sodipodi.sourceforge.net/DTD/sodipodi-0.dtd"
   xmlns:inkscape="http://www.inkscape.org/namespaces/inkscape"
   width="36mm"
   height="36mm"
   viewBox="0 0 36 36"
   version="1.1"
   id="svg8"
   inkscape:version="1.0.1 (3bc2e813f5, 2020-09-07)"
   sodipodi:docname="ui.svg">
  <defs
     id="defs2" />
  <sodipodi:namedview
     id="base"
     pagecolor="#ffffff"
     bordercolor="#666666"
     borderopacity="1.0"
     inkscape:pageopacity="0.0"
     inkscape:pageshadow="2"
     inkscape:zoom="2.8"
     inkscape:cx="82.200908"
     inkscape:cy="112.00327"
     inkscape:document-units="mm"
     inkscape:current-layer="layer1"
     inkscape:document-rotation="0"
     showgrid="false"
     inkscape:showpageshadow="false"
     fit-margin-top="0"
     fit-margin-left="0"
     fit-margin-right="0"
     fit-margin-bottom="0"
     inkscape:window-width="1618"
     inkscape:window-height="904"
     inkscape:window-x="78"
     inkscape:window-y="78"
     inkscape:window-maximized="0" />
  <metadata
     id="metadata5">
    <rdf:RDF>
      <cc:Work
         rdf:about="">
        <dc:format>image/svg+xml</dc:format>
        <dc:type
           rdf:resource="http://purl.org/dc/dcmitype/StillImage" />
        <dc:title></dc:title>
      </cc:Work>
    </rdf:RDF>
  </metadata>
  <g
     inkscape:label="Layer 1"
     inkscape:groupmode="layer"
     id="layer1"
     transform="translate(-142.2619,-43.232143)">
    <rect
       style="fill:#ff00ff;fill-opacity:1;stroke-width:0.499999"
       id="rect1107"
       width="36"
       height="36"
       x="142.2619"
       y="43.232143"
       rx="4"
       ry="4"
       inkscape:export-filename="ui.png"
       inkscape:export-xdpi="25.400002"
       inkscape:export-ydpi="25.400002" />
    <g
       aria-label="Ui"
       id="text1111"
       style="font-weight:bold;font-size:14.9434px;font-family:Poppins;-inkscape-font-specification:'Poppins Bold';fill:#ffffff;fill-opacity:1;stroke-width:0.5"
       transform="translate(74.774187,-26.067854)">
      <path
         d="m 80.728244,82.846865 v 6.619927 q 0,1.180528 0.612679,1.778264 0.627623,0.597736 1.733434,0.597736 1.120755,0 1.733435,-0.597736 0.627623,-0.597736 0.627623,-1.778264 v -6.619927 h 1.703547 v 6.59004 q 0,1.270189 -0.552906,2.15185 -0.552905,0.88166 -1.479396,1.315019 -0.926491,0.433358 -2.047246,0.433358 -1.120755,0 -2.047246,-0.433358 -0.911547,-0.433359 -1.44951,-1.315019 -0.537962,-0.881661 -0.537962,-2.15185 v -6.59004 z"
         style="fill:#ffffff;stroke-width:0.5"
         id="path1445" />
      <path
         d="m 90.217282,83.907847 q -0.463245,0 -0.777057,-0.313812 -0.313811,-0.313811 -0.313811,-0.777056 0,-0.463246 0.313811,-0.777057 0.313812,-0.313812 0.777057,-0.313812 0.448302,0 0.762113,0.313812 0.313812,0.313811 0.313812,0.777057 0,0.463245 -0.313812,0.777056 -0.313811,0.313812 -0.762113,0.313812 z m 0.83683,1.090868 v 8.233814 h -1.703547 v -8.233814 z"
         style="fill:#ffffff;stroke-width:0.5"
         id="path1447" />
    </g>
  </g>
</svg>
